<?xml version="1.0" encoding="utf-8"?>
<!-- Generator: Adobe Illustrator 24.2.0, SVG Export Plug-In . SVG Version: 6.00 Build 0)  -->
<svg version="1.1" id="Layer_1" xmlns="http://www.w3.org/2000/svg" xmlns:xlink="http://www.w3.org/1999/xlink" x="0px" y="0px"
	 viewBox="0 0 944.37 595.28" style="enable-background:new 0 0 944.37 595.28;" xml:space="preserve">
<style type="text/css">
	.st0{fill:none;stroke:#2E3192;stroke-miterlimit:10;}
	.st1{fill:none;stroke:#BE1E2D;stroke-miterlimit:10;}
	.st2{fill:none;stroke:#2E3192;stroke-linejoin:round;stroke-miterlimit:10;}
</style>
<rect x="46.67" y="56.3" class="st0" width="852.44" height="481.89"/>
<circle class="st0" cx="837.17" cy="329.81" r="7.09"/>
<path class="st0" d="M157.27,353.19c1.23,2.16-0.22,3.48-1.33,5.01c-0.98,1.36-0.76,2.81,0.43,3.99c3.27,3.17,7.4-2.03,7.76-5.35
	c1.1-21.53-27.32-5.05-21.37-19.21c1.61-1.89,1.68-4.8-0.95-5.66c-8.88-0.63-10.98,19.78,8.25,19.36c0.02-0.11,0.04-0.22,0.05-0.33
	C152.76,351.09,155.68,350.34,157.27,353.19z"/>
<path class="st0" d="M103.94,363.05c-0.93-0.62-2.13-0.86-3.15-0.42c-7.25,1.49-4.7-7.85-6.02-11.98c-1.75-5.07-8.25-1.4-6.13,3.1
	C87.25,374.96,110.97,371.47,103.94,363.05z"/>
<path class="st0" d="M188.94,322.2c3.92-1.91,1.78-7.22-2.39-5.93c-2.69,0.84-4.04,0.19-5.2-2.34c-1.41-5.05,4.94-8.79,3.87-13.88
	c1.39-8.26-9.15-15.04-15.07-9.23c-2.72,4.36,2.3,5.12,5.63,4.65c8.72,2.86-2.73,12.19-0.77,18.23
	C175.27,320.39,181.97,325.48,188.94,322.2z"/>
<path class="st0" d="M136.85,409.18c2.47,7.5,14.65-1.92,13.82-7.57c1.05-13.71-16.76-11.43-8.92-4.5c3.81,1.41,3.03,6.58-0.48,7.86
	C139.21,405.62,136.48,406.49,136.85,409.18z"/>
<path class="st0" d="M127.89,243.34c-1.06,5.65,6.95,13.14,10.46,7.34c-0.06-1.38-0.93-3.8-2.56-4.32
	c-4.37-2.51,0.19-7.67,3.67-8.17c14.94-2.04,14.38-23.12,1.83-20.39c-2.39,1.45-1.96,3.45,0.96,5.56
	C151.47,233.16,125.31,230.47,127.89,243.34z"/>
<path class="st0" d="M136.37,290.45c3.18,2.23,6.53-3.54,3.4-5.27c-11.93-8.47-19.76,7.06-14.6,17.47c1.29,3.76-3.37,7.77-6.6,4.95
	c-2.94-1.75-6.41,2.6-3.52,4.96c4.57,4.38,12.73,2.35,15.12-2.94c2.19-4.39,1.41-8.85-0.09-13.22
	C128.15,292.32,132.39,287.47,136.37,290.45z"/>
<path class="st0" d="M91.43,319.07c9.69,0.55,15.92-10.52,11.25-18.56c-1.59-3.02-6.71-1.87-5.89,1.61
	c2.47,4.79-0.64,12.78-6.87,10.22c-2.67-0.89-4.37-5.09-7.48-3.79C76.23,312.77,86.47,319.96,91.43,319.07z"/>
<path class="st0" d="M125.1,347.15c-3.45-2.55-13.16-2.9-12.75,2.96c1.35,4.06,5.76,1.29,8.75,2.24c2.96,0.75,3.65,3.44,3.83,5.89
	c0.58,3.66-4.15,4.81-5.29,7.61C120.98,378.55,141.82,356.37,125.1,347.15z"/>
<path class="st0" d="M98.16,228.08c-3.37,3.83,2.42,9.11,5.14,3.93c3.64-5.77,2.56-13.14-3.18-17.06
	c-5.35-4.95-20.16-1.31-16.97,6.61c1.2,1.28,3.53,1.06,5.25-0.51C93.66,215.69,101.09,221.61,98.16,228.08z"/>
<path class="st0" d="M122.5,272.75c5.02,0.69,10.6-4.3,11.78-7.91c1.73-5.01-3.37-8.02-5.95-2.8c-1.76,4.1-3.65,4.14-6.92,3.99
	c-2.95-0.14-5.81-4.15-5.05-7c1.15-4.05-5.29-5.44-6.06-1.12C108.78,266.64,115.94,273.29,122.5,272.75z"/>
<path class="st0" d="M159.15,329.09c4.39,1.01,6.99,5.42,6.69,9.78c0.01,5.09,7.56,3.25,6.67-2.15
	c-0.36-6.74-5.33-11.57-11.78-13.66C156.48,320.95,153.29,327.31,159.15,329.09z"/>
<path class="st0" d="M147.05,280.15c7.23,4.64,23.51-7.33,15.84-13.93c-4.58-1.52-4.37,7.03-8.55,7.49
	c-1.88,0.56-3.96,0.65-5.95,0.66C144.73,274.43,144.24,278.51,147.05,280.15z"/>
<path class="st0" d="M107.12,321.95c-6.56,6.02,6.72,14.11,11.57,13.47c7.71,0.94,11.13-7.72,2.42-6.71
	C111.67,331.13,112.66,320.26,107.12,321.95z"/>
<path class="st0" d="M166.85,202.48c3.92,4.51,12.23-11.27,13.48-14.46c-2.06-4.04-6.04-2.93-7.71,0.9
	C171.09,192.9,163.43,198.4,166.85,202.48z"/>
<path class="st0" d="M168.92,377.19c5.44-1.15,7.13-8.77,10.65-12.66c2.26-2.93-2.48-6.96-4.9-4.14
	C172.97,363.97,160.3,376.24,168.92,377.19z"/>
<path class="st0" d="M190.01,349.92c-1.82-4.74,0.09-14.8-5.4-16.54c-7.46,1.35-0.82,12.27-1.11,17.24
	C184.17,354.86,190.34,354.09,190.01,349.92z"/>
<path class="st0" d="M149.75,261.77c1.27-4.65,9.94-13.74,2.78-16.44c-5.35,2.14-6.11,10.3-9.07,14.9
	c-0.88,1.93,0.81,4.12,3.91,4.07C147.89,263.76,149.15,262.94,149.75,261.77z"/>
<path class="st0" d="M122.58,216.32c-1.55,4.47-12.95,15.5-3.31,16.83c4.16-3.19,5.84-9.36,8.76-13.73
	C130.45,215.7,124.7,212.54,122.58,216.32z"/>
<path class="st0" d="M163.54,394.51c1.03-0.28,1.76-1.67,2.51-2.47c-1.91-5.48-5.66-9.85-8.82-14.65c-1-1.3-2.34-1.32-3.72-0.4
	c-3.64,3.26,1.68,8.22,3.24,11.47C158.38,391,159.85,395.2,163.54,394.51z"/>
<path class="st0" d="M125.03,388.92c-4.81,2.55-6.35,9.38-9.37,13.74c-0.89,1.69-0.18,3.6,1.54,4.45
	c5.1,2.25,8.11-10.48,10.96-13.72C129.28,391.3,127.89,389.05,125.03,388.92z"/>
<path class="st0" d="M152.83,207.78c2.98,3.14,6.25,15.54,11.62,12c1.44-1.18,1.84-2.6,0.85-4.26c-3.18-3.19-6.06-13.85-10.85-13.28
	C151.87,202.84,151.75,205.75,152.83,207.78z"/>
<path class="st0" d="M140.04,324.04c1.51-4.38,13.77-15.57,3.99-16.74c-4.26,3.09-6.31,9.11-9.34,13.41
	C132.22,324.31,137.97,327.42,140.04,324.04z"/>
<path class="st0" d="M179.21,278.44c1.14,3.43,6.6,2.15,6.15-1.35c-2.28-4.48-1.49-16.85-8.18-16.11
	C172.02,263.83,178.71,273.82,179.21,278.44z"/>
<path class="st0" d="M144.12,361.74c-5.64-0.57-5.58,11.79-7.68,15.79c-0.49,1.83,0.71,3.14,2.36,3.68c4.74,1.15,4.4-6.3,5.92-9.24
	C145.18,368.81,148.94,362.93,144.12,361.74z"/>
<path class="st0" d="M115.73,293.44c-0.13-0.14-0.25-0.27-0.38-0.41c-1.52-5.13-3.15-10.97-6.48-15.23
	c-10.11-3.53-0.26,13.01,0.63,16.83C111.02,298.09,114.24,295.61,115.73,293.44z"/>
<path class="st0" d="M123.46,380.53c-0.16-2.6-3.27-4.19-5.7-4.65c-4.64-0.81-11.99-5.77-14.05-0.49c-0.33,4.31,6.16,4.37,9.08,5.83
	C115.94,381.77,122.49,385.44,123.46,380.53z"/>
<path class="st0" d="M162.5,237.35c4.25-3.04,10.33-4.94,13.45-9.08c-0.67-10.25-12.47,2.25-16.82,3.83
	C155.54,233.83,159.47,239.38,162.5,237.35z"/>
<path class="st0" d="M155.77,305.4c0.56,1.64,1.57,2.8,3.65,2.75c6.99-0.86-1.25-12.96-1.75-17.1c-0.8-2.17-2.41-2.83-4.08-2.08
	C148.44,292.6,155.25,300.46,155.77,305.4z"/>
<path class="st0" d="M175.46,399.9c-0.99-1.44-2.28-2.18-4.11-1.05c-3.98,3.54-12.82,4.87-13.16,10.84
	c1.7,5.25,8.17-0.53,11.06-1.98C171.64,405.71,177.93,403.88,175.46,399.9z"/>
<path class="st0" d="M137.11,205.6c6.93,5.19,7.3-9.52,9.22-13.46c0.8-2.84-0.3-4.51-3.7-4.48
	C140.35,187.62,135.1,204.53,137.11,205.6z"/>
<path class="st0" d="M103.43,344.53c1.74-4.44-6.63-9.91-8.81-13.8c-2.95-3.8-7.68-0.1-4.86,3.61c3.69,4.13,5.83,9.92,11.16,12.14
	C101.82,345.8,102.8,345.31,103.43,344.53z"/>
<path class="st0" d="M90.78,262.34c-2.22,1.12-3.46-0.4-4.94-1.58c-1.31-1.04-2.77-0.9-4,0.23c-3.33,3.1,1.65,7.49,4.95,8.02
	c21.54,2.09,6.38-27.06,20.26-20.38c1.81,1.7,4.71,1.92,5.7-0.67c1.08-8.83-19.21-11.96-19.75,7.27c0.11,0.02,0.22,0.05,0.32,0.07
	C93.11,257.93,93.7,260.89,90.78,262.34z"/>
<circle class="st0" cx="249.11" cy="217.94" r="11.34"/>
<circle class="st0" cx="346.11" cy="217.94" r="11.34"/>
<circle class="st0" cx="443.11" cy="217.94" r="11.34"/>
<circle class="st0" cx="540.11" cy="217.94" r="11.34"/>
<circle class="st0" cx="224.6" cy="292.58" r="4.25"/>
<circle class="st0" cx="224.6" cy="402.26" r="4.25"/>
<circle class="st0" cx="512.6" cy="292.58" r="4.25"/>
<circle class="st0" cx="512.6" cy="402.26" r="4.25"/>
<circle class="st0" cx="837.22" cy="404.21" r="4.25"/>
<circle class="st0" cx="253.44" cy="329.71" r="17.01"/>
<circle class="st0" cx="296.67" cy="329.71" r="17.01"/>
<circle class="st0" cx="383.15" cy="329.71" r="17.01"/>
<circle class="st0" cx="426.38" cy="329.71" r="17.01"/>
<circle class="st0" cx="469.53" cy="329.71" r="17.01"/>
<circle class="st0" cx="556.15" cy="329.71" r="17.01"/>
<circle class="st0" cx="599.38" cy="329.71" r="17.01"/>
<circle class="st0" cx="685.91" cy="329.71" r="17.01"/>
<circle class="st0" cx="729.14" cy="329.71" r="17.01"/>
<circle class="st0" cx="772.29" cy="329.71" r="17.01"/>
<circle class="st0" cx="231.78" cy="372.95" r="17.01"/>
<circle class="st0" cx="275.01" cy="372.95" r="17.01"/>
<circle class="st0" cx="361.49" cy="372.95" r="17.01"/>
<circle class="st0" cx="404.72" cy="372.95" r="17.01"/>
<circle class="st0" cx="447.87" cy="372.95" r="17.01"/>
<circle class="st0" cx="534.49" cy="372.95" r="17.01"/>
<circle class="st0" cx="577.72" cy="372.95" r="17.01"/>
<circle class="st0" cx="664.25" cy="372.95" r="17.01"/>
<circle class="st0" cx="707.48" cy="372.95" r="17.01"/>
<circle class="st0" cx="750.63" cy="372.95" r="17.01"/>
<circle class="st0" cx="318.35" cy="372.95" r="17.01"/>
<circle class="st0" cx="491.18" cy="372.95" r="17.01"/>
<circle class="st0" cx="621.01" cy="372.95" r="17.01"/>
<circle class="st0" cx="793.95" cy="372.95" r="17.01"/>
<circle class="st0" cx="837.17" cy="372.95" r="9.92"/>
<circle class="st0" cx="837.39" cy="290.74" r="9.92"/>
<line class="st1" x1="46.67" y1="171.52" x2="899.11" y2="171.52"/>
<line class="st1" x1="899.11" y1="426.98" x2="46.67" y2="426.98"/>
<g>
	<circle class="st0" cx="463.25" cy="74.05" r="4.25"/>
	<circle class="st0" cx="71.25" cy="74.05" r="4.25"/>
	<circle class="st0" cx="854.25" cy="74.05" r="4.25"/>
</g>
<g>
	<circle class="st0" cx="463.25" cy="521.05" r="4.25"/>
	<circle class="st0" cx="71.25" cy="521.05" r="4.25"/>
	<circle class="st0" cx="854.25" cy="521.05" r="4.25"/>
</g>
<path class="st2" d="M118.03,201.82c-1.21-0.49-2.52-0.73-3.77-1.14c-2.83-0.94-5.64-1.96-8.48-2.87c-2.17-0.69-4.63,0.29-5.04,2.11
	c-0.5,2.18,1.07,3.17,2.77,3.81c1.45,0.55,2.91,1.04,4.38,1.52c-2.05,0.3-3.63,2.05-3.63,4.19c0,2.35,1.9,4.25,4.25,4.25
	c2.35,0,4.25-1.9,4.25-4.25c0-1.17-0.48-2.24-1.24-3.01c1.64,0.54,3.19,1.03,4.12,1.33c3.01,0.06,4.79-1,4.95-2.55
	C120.78,203.37,119.51,202.42,118.03,201.82z"/>
<circle class="st0" cx="140.6" cy="112.33" r="17.01"/>
<path class="st0" d="M179.4,239.46c-5.02-0.69-10.6,4.3-11.78,7.91c-1.73,5.01,3.37,8.02,5.95,2.8c1.76-4.1,3.65-4.14,6.92-3.99
	c2.95,0.14,5.81,4.15,5.05,7c-1.15,4.05,5.29,5.44,6.06,1.12C193.12,245.57,185.96,238.92,179.4,239.46z"/>
<path class="st0" d="M183.2,388.72c-0.42-2.46,0.37-4.63,2.04-6.56c1.28-1.48,1.02-3.35-0.31-4.46c-1.15-0.95-3.68-0.83-4.59,0.37
	c-1.62,2.13-3,4.36-3.61,6.6c-0.78-0.88-1.9-1.44-3.17-1.44c-2.35,0-4.25,1.9-4.25,4.25c0,2.35,1.9,4.25,4.25,4.25
	c1.23,0,2.32-0.53,3.1-1.36c0.45,2.62,1.49,4.7,2.95,6.66c1.42,1.89,3.56,2.67,5.11,1.58c1.4-0.99,1.25-3.27,0.07-5.28
	C183.98,391.96,183.47,390.31,183.2,388.72z"/>
<path class="st0" d="M98.48,381.69c-4.59-1.98-11.06-0.34-14.21,3.58c-1.15,1.43-1.07,3.03,0.22,4.33c1.3,1.31,2.89,1.42,4.32,0.27
	c0.44-0.35,0.81-0.78,1.24-1.13c3.51-2.85,8.09-1.42,9.59,2.8c0.88,2.47-0.31,4.33-1.25,6.28c-0.64,1.33-0.64,2.37,0.36,3.44
	c1.72,1.84,4.26,1.55,5.53-0.93c1.08-2.11,1.7-4.46,2.52-6.71C106.36,387.7,103.61,383.9,98.48,381.69z"/>
<path class="st0" d="M180.45,220.92c1.16,1.87,3.82,2.47,5.3,1.4c1.39-1,1.23-3.27,0.02-5.28c-0.79-1.32-1.32-2.89-1.57-4.41
	c-0.41-2.52,0.31-4.77,2.05-6.77c1.28-1.47,0.99-3.36-0.35-4.45c-1.1-0.89-3.56-0.84-4.44,0.27c-2.32,2.94-4.15,6.12-4.03,10.05
	C177.27,215.18,178.71,218.12,180.45,220.92z"/>
</svg>
